<svg width="258" height="192" viewBox="0 0 258 192" fill="none" xmlns="http://www.w3.org/2000/svg">
<path d="M11.9243 39.0923C14.1948 39.0923 16.0354 37.1739 16.0354 34.8074C16.0354 32.441 14.1948 30.5226 11.9243 30.5226C9.65382 30.5226 7.81323 32.441 7.81323 34.8074C7.81323 37.1739 9.65382 39.0923 11.9243 39.0923Z" fill="#E6E6E6"/>
<path d="M24.2575 39.0923C26.528 39.0923 28.3686 37.1739 28.3686 34.8074C28.3686 32.441 26.528 30.5226 24.2575 30.5226C21.987 30.5226 20.1464 32.441 20.1464 34.8074C20.1464 37.1739 21.987 39.0923 24.2575 39.0923Z" fill="#E6E6E6"/>
<path d="M36.5907 39.0923C38.8612 39.0923 40.7018 37.1739 40.7018 34.8074C40.7018 32.441 38.8612 30.5226 36.5907 30.5226C34.3203 30.5226 32.4797 32.441 32.4797 34.8074C32.4797 37.1739 34.3203 39.0923 36.5907 39.0923Z" fill="#E6E6E6"/>
<path d="M48.9239 39.0923C51.1944 39.0923 53.035 37.1739 53.035 34.8074C53.035 32.441 51.1944 30.5226 48.9239 30.5226C46.6535 30.5226 44.8129 32.441 44.8129 34.8074C44.8129 37.1739 46.6535 39.0923 48.9239 39.0923Z" fill="#E6E6E6"/>
<path d="M61.2572 39.0923C63.5277 39.0923 65.3683 37.1739 65.3683 34.8074C65.3683 32.441 63.5277 30.5226 61.2572 30.5226C58.9867 30.5226 57.1461 32.441 57.1461 34.8074C57.1461 37.1739 58.9867 39.0923 61.2572 39.0923Z" fill="#E6E6E6"/>
<path d="M73.5903 39.0923C75.8608 39.0923 77.7014 37.1739 77.7014 34.8074C77.7014 32.441 75.8608 30.5226 73.5903 30.5226C71.3198 30.5226 69.4792 32.441 69.4792 34.8074C69.4792 37.1739 71.3198 39.0923 73.5903 39.0923Z" fill="#E6E6E6"/>
<path d="M85.9236 39.0923C88.1941 39.0923 90.0346 37.1739 90.0346 34.8074C90.0346 32.441 88.1941 30.5226 85.9236 30.5226C83.6531 30.5226 81.8125 32.441 81.8125 34.8074C81.8125 37.1739 83.6531 39.0923 85.9236 39.0923Z" fill="#E6E6E6"/>
<path d="M95.4235 40.0254H2.42439C1.98085 40.0248 1.55562 39.8409 1.24198 39.514C0.92835 39.1872 0.751925 38.744 0.751404 38.2817V31.3332C0.751924 30.871 0.92835 30.4277 1.24198 30.1009C1.55562 29.774 1.98085 29.5901 2.42439 29.5895H95.4235C95.867 29.5901 96.2922 29.774 96.6059 30.1009C96.9195 30.4277 97.0959 30.871 97.0965 31.3332V38.2817C97.0959 38.744 96.9195 39.1872 96.6059 39.514C96.2922 39.8409 95.867 40.0248 95.4235 40.0254V40.0254ZM2.42439 30.287C2.15826 30.2873 1.90311 30.3977 1.71492 30.5938C1.52674 30.7899 1.42089 31.0559 1.4206 31.3332V38.2817C1.42089 38.559 1.52674 38.825 1.71492 39.0211C1.90311 39.2173 2.15826 39.3276 2.42439 39.3279H95.4235C95.6896 39.3276 95.9447 39.2173 96.1329 39.0211C96.3211 38.825 96.427 38.559 96.4273 38.2817V31.3332C96.427 31.0559 96.3211 30.7899 96.1329 30.5938C95.9447 30.3976 95.6896 30.2873 95.4235 30.287L2.42439 30.287Z" fill="#E6E6E6"/>
<path d="M22.3268 1.00186C22.5816 1.00216 22.8259 1.10782 23.0061 1.29563C23.1863 1.48345 23.2877 1.73809 23.288 2.00371V23.7139C23.2877 23.9795 23.1863 24.2341 23.0061 24.4219C22.8259 24.6098 22.5816 24.7154 22.3268 24.7157H1.92248C1.66763 24.7154 1.42331 24.6098 1.24311 24.4219C1.06291 24.2341 0.961543 23.9795 0.961252 23.7139V2.00373C0.961543 1.73811 1.06291 1.48346 1.24311 1.29565C1.42331 1.10783 1.66763 1.00218 1.92248 1.00188H22.3268V1.00186ZM22.3268 1.439e-05H1.92248C1.41261 1.439e-05 0.923616 0.21112 0.563083 0.586892C0.202549 0.962664 0 1.47232 0 2.00374V23.7139C0 24.2453 0.202549 24.7549 0.563083 25.1307C0.923616 25.5065 1.41261 25.7176 1.92248 25.7176H22.3268C22.8366 25.7176 23.3256 25.5065 23.6862 25.1307C24.0467 24.7549 24.2492 24.2453 24.2492 23.7139V2.00373C24.2492 1.47231 24.0467 0.962649 23.6862 0.586877C23.3256 0.211106 22.8366 8.33718e-07 22.3268 0V1.439e-05Z" fill="#E6E6E6"/>
<path d="M19.1442 6.70852H5.53056C5.4672 6.70893 5.40439 6.69627 5.34574 6.67128C5.28709 6.64629 5.23375 6.60945 5.18881 6.5629C5.14387 6.51634 5.1082 6.46099 5.08386 6.40001C5.05953 6.33903 5.047 6.27364 5.047 6.2076C5.047 6.14156 5.05953 6.07617 5.08386 6.01519C5.1082 5.95422 5.14387 5.89886 5.18881 5.8523C5.23375 5.80575 5.28709 5.76891 5.34574 5.74392C5.40439 5.71893 5.4672 5.70627 5.53056 5.70667H19.1442C19.2075 5.70627 19.2703 5.71893 19.329 5.74392C19.3876 5.76891 19.441 5.80575 19.4859 5.8523C19.5309 5.89886 19.5665 5.95422 19.5909 6.01519C19.6152 6.07617 19.6277 6.14156 19.6277 6.2076C19.6277 6.27364 19.6152 6.33903 19.5909 6.40001C19.5665 6.46099 19.5309 6.51634 19.4859 6.5629C19.441 6.60945 19.3876 6.64629 19.329 6.67128C19.2703 6.69627 19.2075 6.70893 19.1442 6.70852V6.70852Z" fill="#00B0FF"/>
<path d="M19.1442 10.2559H5.53056C5.4672 10.2563 5.40439 10.2436 5.34574 10.2186C5.28709 10.1936 5.23375 10.1568 5.18881 10.1103C5.14387 10.0637 5.1082 10.0083 5.08386 9.94737C5.05953 9.88639 5.047 9.821 5.047 9.75496C5.047 9.68892 5.05953 9.62353 5.08386 9.56255C5.1082 9.50157 5.14387 9.44622 5.18881 9.39966C5.23375 9.35311 5.28709 9.31628 5.34574 9.29128C5.40439 9.26629 5.4672 9.25363 5.53056 9.25404H19.1442C19.2075 9.25363 19.2703 9.26629 19.329 9.29128C19.3876 9.31628 19.441 9.35311 19.4859 9.39966C19.5309 9.44622 19.5665 9.50157 19.5909 9.56255C19.6152 9.62353 19.6277 9.68892 19.6277 9.75496C19.6277 9.821 19.6152 9.88639 19.5909 9.94737C19.5665 10.0083 19.5309 10.0637 19.4859 10.1103C19.441 10.1568 19.3876 10.1936 19.329 10.2186C19.2703 10.2436 19.2075 10.2563 19.1442 10.2559V10.2559Z" fill="#00B0FF"/>
<path d="M19.1442 13.803H5.53056C5.4672 13.8034 5.40439 13.7908 5.34574 13.7658C5.28709 13.7408 5.23375 13.7039 5.18881 13.6574C5.14387 13.6108 5.1082 13.5555 5.08386 13.4945C5.05953 13.4335 5.047 13.3681 5.047 13.3021C5.047 13.236 5.05953 13.1706 5.08386 13.1097C5.1082 13.0487 5.14387 12.9933 5.18881 12.9468C5.23375 12.9002 5.28709 12.8634 5.34574 12.8384C5.40439 12.8134 5.4672 12.8008 5.53056 12.8012H19.1442C19.2075 12.8008 19.2703 12.8134 19.329 12.8384C19.3876 12.8634 19.441 12.9002 19.4859 12.9468C19.5309 12.9933 19.5665 13.0487 19.5909 13.1097C19.6152 13.1706 19.6277 13.236 19.6277 13.3021C19.6277 13.3681 19.6152 13.4335 19.5909 13.4945C19.5665 13.5555 19.5309 13.6108 19.4859 13.6574C19.441 13.7039 19.3876 13.7408 19.329 13.7658C19.2703 13.7908 19.2075 13.8034 19.1442 13.803V13.803Z" fill="#00B0FF"/>
<path d="M19.1442 17.3504H5.53056C5.4672 17.3508 5.40439 17.3381 5.34574 17.3131C5.28709 17.2881 5.23375 17.2513 5.18881 17.2047C5.14387 17.1582 5.1082 17.1028 5.08386 17.0418C5.05953 16.9809 5.047 16.9155 5.047 16.8494C5.047 16.7834 5.05953 16.718 5.08386 16.657C5.1082 16.5961 5.14387 16.5407 5.18881 16.4941C5.23375 16.4476 5.28709 16.4108 5.34574 16.3858C5.40439 16.3608 5.4672 16.3481 5.53056 16.3485H19.1442C19.2075 16.3481 19.2703 16.3608 19.329 16.3858C19.3876 16.4108 19.441 16.4476 19.4859 16.4941C19.5309 16.5407 19.5665 16.5961 19.5909 16.657C19.6152 16.718 19.6277 16.7834 19.6277 16.8494C19.6277 16.9155 19.6152 16.9809 19.5909 17.0418C19.5665 17.1028 19.5309 17.1582 19.4859 17.2047C19.441 17.2513 19.3876 17.2881 19.329 17.3131C19.2703 17.3381 19.2075 17.3508 19.1442 17.3504V17.3504Z" fill="#00B0FF"/>
<path d="M19.1441 20.8977H5.53054C5.40308 20.8977 5.28083 20.845 5.19069 20.751C5.10056 20.6571 5.04993 20.5297 5.04993 20.3968C5.04993 20.264 5.10056 20.1365 5.19069 20.0426C5.28083 19.9487 5.40308 19.8959 5.53054 19.8959H19.1441C19.2716 19.8959 19.3939 19.9487 19.484 20.0426C19.5741 20.1365 19.6248 20.264 19.6248 20.3968C19.6248 20.5297 19.5741 20.6571 19.484 20.751C19.3939 20.845 19.2716 20.8977 19.1441 20.8977V20.8977Z" fill="#00B0FF"/>
<path d="M92.0164 1.00186C92.2712 1.00216 92.5155 1.10782 92.6957 1.29563C92.8759 1.48345 92.9773 1.73809 92.9776 2.00371V23.7139C92.9773 23.9795 92.8759 24.2341 92.6957 24.4219C92.5155 24.6098 92.2712 24.7154 92.0164 24.7157H71.6121C71.3572 24.7154 71.1129 24.6098 70.9327 24.4219C70.7525 24.2341 70.6511 23.9795 70.6508 23.7139V2.00373C70.6511 1.73811 70.7525 1.48346 70.9327 1.29565C71.1129 1.10783 71.3572 1.00218 71.6121 1.00188H92.0164V1.00186ZM92.0164 1.439e-05H71.6121C71.1022 1.439e-05 70.6132 0.21112 70.2527 0.586892C69.8921 0.962664 69.6896 1.47232 69.6896 2.00374V23.7139C69.6896 24.2453 69.8921 24.7549 70.2527 25.1307C70.6132 25.5065 71.1022 25.7176 71.6121 25.7176H92.0164C92.5262 25.7176 93.0152 25.5065 93.3757 25.1307C93.7363 24.7549 93.9388 24.2453 93.9388 23.7139V2.00373C93.9388 1.47231 93.7363 0.962649 93.3757 0.586877C93.0152 0.211106 92.5262 0 92.0164 0V1.439e-05Z" fill="#E6E6E6"/>
<path d="M88.8337 6.70852H75.2201C75.1568 6.70893 75.094 6.69627 75.0353 6.67128C74.9767 6.64629 74.9233 6.60945 74.8784 6.5629C74.8334 6.51634 74.7978 6.46099 74.7734 6.40001C74.7491 6.33903 74.7366 6.27364 74.7366 6.2076C74.7366 6.14156 74.7491 6.07617 74.7734 6.01519C74.7978 5.95422 74.8334 5.89886 74.8784 5.8523C74.9233 5.80575 74.9767 5.76891 75.0353 5.74392C75.094 5.71893 75.1568 5.70627 75.2201 5.70667H88.8337C88.9607 5.70749 89.0822 5.76062 89.1717 5.85447C89.2612 5.94833 89.3114 6.07528 89.3114 6.2076C89.3114 6.33992 89.2612 6.46687 89.1717 6.56072C89.0822 6.65458 88.9607 6.70771 88.8337 6.70852H88.8337Z" fill="#00B0FF"/>
<path d="M88.8337 10.2559H75.2201C75.1568 10.2563 75.094 10.2436 75.0353 10.2186C74.9767 10.1936 74.9233 10.1568 74.8784 10.1103C74.8334 10.0637 74.7978 10.0083 74.7734 9.94737C74.7491 9.88639 74.7366 9.821 74.7366 9.75496C74.7366 9.68892 74.7491 9.62353 74.7734 9.56255C74.7978 9.50157 74.8334 9.44622 74.8784 9.39966C74.9233 9.35311 74.9767 9.31628 75.0353 9.29128C75.094 9.26629 75.1568 9.25363 75.2201 9.25404H88.8337C88.9607 9.25485 89.0822 9.30798 89.1717 9.40184C89.2612 9.49569 89.3114 9.62264 89.3114 9.75496C89.3114 9.88728 89.2612 10.0142 89.1717 10.1081C89.0822 10.2019 88.9607 10.2551 88.8337 10.2559H88.8337Z" fill="#00B0FF"/>
<path d="M88.8337 13.803H75.2201C75.1568 13.8034 75.094 13.7908 75.0353 13.7658C74.9767 13.7408 74.9233 13.7039 74.8784 13.6574C74.8334 13.6108 74.7978 13.5555 74.7734 13.4945C74.7491 13.4335 74.7366 13.3681 74.7366 13.3021C74.7366 13.236 74.7491 13.1706 74.7734 13.1097C74.7978 13.0487 74.8334 12.9933 74.8784 12.9468C74.9233 12.9002 74.9767 12.8634 75.0353 12.8384C75.094 12.8134 75.1568 12.8008 75.2201 12.8012H88.8337C88.9607 12.802 89.0822 12.8551 89.1717 12.949C89.2612 13.0428 89.3114 13.1698 89.3114 13.3021C89.3114 13.4344 89.2612 13.5614 89.1717 13.6552C89.0822 13.7491 88.9607 13.8022 88.8337 13.803H88.8337Z" fill="#00B0FF"/>
<path d="M88.8337 17.3504H75.2201C75.1568 17.3508 75.094 17.3381 75.0353 17.3131C74.9767 17.2881 74.9233 17.2513 74.8784 17.2047C74.8334 17.1582 74.7978 17.1028 74.7734 17.0418C74.7491 16.9809 74.7366 16.9155 74.7366 16.8494C74.7366 16.7834 74.7491 16.718 74.7734 16.657C74.7978 16.5961 74.8334 16.5407 74.8784 16.4941C74.9233 16.4476 74.9767 16.4108 75.0353 16.3858C75.094 16.3608 75.1568 16.3481 75.2201 16.3485H88.8337C88.9607 16.3493 89.0822 16.4025 89.1717 16.4963C89.2612 16.5902 89.3114 16.7171 89.3114 16.8494C89.3114 16.9818 89.2612 17.1087 89.1717 17.2026C89.0822 17.2964 88.9607 17.3496 88.8337 17.3504H88.8337Z" fill="#00B0FF"/>
<path d="M88.8338 20.8977H75.2202C75.0928 20.8977 74.9705 20.845 74.8804 20.751C74.7903 20.6571 74.7396 20.5297 74.7396 20.3968C74.7396 20.264 74.7903 20.1365 74.8804 20.0426C74.9705 19.9487 75.0928 19.8959 75.2202 19.8959H88.8339C88.9613 19.8959 89.0836 19.9487 89.1737 20.0426C89.2638 20.1365 89.3145 20.264 89.3145 20.3968C89.3145 20.5297 89.2638 20.6571 89.1737 20.751C89.0836 20.845 88.9613 20.8977 88.8339 20.8977H88.8338Z" fill="#00B0FF"/>
<path d="M161.368 42.7455C161.622 42.7458 161.867 42.8514 162.047 43.0392C162.227 43.227 162.328 43.4817 162.329 43.7473V65.4574C162.328 65.7231 162.227 65.9777 162.047 66.1655C161.867 66.3533 161.622 66.459 161.368 66.4593H140.963C140.708 66.459 140.464 66.3533 140.284 66.1655C140.104 65.9777 140.002 65.7231 140.002 65.4574V43.7473C140.002 43.4817 140.104 43.2271 140.284 43.0392C140.464 42.8514 140.708 42.7458 140.963 42.7455H161.368V42.7455ZM161.368 41.7436H140.963C140.453 41.7436 139.964 41.9547 139.604 42.3305C139.243 42.7063 139.041 43.2159 139.041 43.7474V65.4575C139.041 65.9889 139.243 66.4986 139.604 66.8743C139.964 67.2501 140.453 67.4612 140.963 67.4612H161.368C161.877 67.4612 162.366 67.2501 162.727 66.8743C163.087 66.4986 163.29 65.9889 163.29 65.4575V43.7473C163.29 43.2159 163.087 42.7062 162.727 42.3305C162.366 41.9547 161.877 41.7436 161.368 41.7436V41.7436Z" fill="#00B0FF"/>
<path d="M158.185 48.4521H144.571C144.508 48.4525 144.445 48.4399 144.387 48.4149C144.328 48.3899 144.275 48.353 144.23 48.3065C144.185 48.2599 144.149 48.2046 144.125 48.1436C144.1 48.0826 144.088 48.0172 144.088 47.9512C144.088 47.8851 144.1 47.8198 144.125 47.7588C144.149 47.6978 144.185 47.6424 144.23 47.5959C144.275 47.5493 144.328 47.5125 144.387 47.4875C144.445 47.4625 144.508 47.4499 144.571 47.4503H158.185C158.312 47.4511 158.433 47.5042 158.523 47.5981C158.612 47.6919 158.663 47.8189 158.663 47.9512C158.663 48.0835 158.612 48.2105 158.523 48.3043C158.433 48.3982 158.312 48.4513 158.185 48.4521V48.4521Z" fill="#00B0FF"/>
<path d="M158.185 51.9995H144.571C144.444 51.9995 144.322 51.9467 144.231 51.8528C144.141 51.7588 144.091 51.6314 144.091 51.4986C144.091 51.3657 144.141 51.2383 144.231 51.1443C144.322 51.0504 144.444 50.9976 144.571 50.9976H158.185C158.312 50.9976 158.435 51.0504 158.525 51.1443C158.615 51.2383 158.666 51.3657 158.666 51.4986C158.666 51.6314 158.615 51.7588 158.525 51.8528C158.435 51.9467 158.312 51.9995 158.185 51.9995V51.9995Z" fill="#00B0FF"/>
<path d="M158.185 55.5466H144.571C144.508 55.5469 144.445 55.5342 144.387 55.5092C144.328 55.4842 144.275 55.4473 144.23 55.4008C144.185 55.3542 144.149 55.2989 144.125 55.2379C144.101 55.177 144.088 55.1117 144.088 55.0457C144.088 54.9797 144.101 54.9143 144.125 54.8534C144.149 54.7925 144.185 54.7371 144.23 54.6906C144.275 54.644 144.328 54.6072 144.387 54.5821C144.445 54.5571 144.508 54.5444 144.571 54.5447H158.185C158.312 54.5456 158.433 54.5987 158.523 54.6925C158.612 54.7864 158.663 54.9133 158.663 55.0457C158.663 55.178 158.612 55.3049 158.523 55.3988C158.433 55.4926 158.312 55.5458 158.185 55.5466V55.5466Z" fill="#00B0FF"/>
<path d="M158.185 59.0939H144.571C144.508 59.0944 144.445 59.0817 144.387 59.0567C144.328 59.0317 144.275 58.9949 144.23 58.9483C144.185 58.9018 144.149 58.8464 144.125 58.7854C144.1 58.7245 144.088 58.6591 144.088 58.593C144.088 58.527 144.1 58.4616 144.125 58.4006C144.149 58.3396 144.185 58.2843 144.23 58.2377C144.275 58.1912 144.328 58.1543 144.387 58.1294C144.445 58.1044 144.508 58.0917 144.571 58.0921H158.185C158.312 58.0929 158.433 58.1461 158.523 58.2399C158.612 58.3338 158.663 58.4607 158.663 58.593C158.663 58.7253 158.612 58.8523 158.523 58.9462C158.433 59.04 158.312 59.0931 158.185 59.0939V59.0939Z" fill="#00B0FF"/>
<path d="M158.185 62.6413H144.571C144.508 62.6417 144.445 62.6291 144.387 62.6041C144.328 62.5791 144.275 62.5423 144.23 62.4957C144.185 62.4491 144.149 62.3938 144.125 62.3328C144.1 62.2718 144.088 62.2064 144.088 62.1404C144.088 62.0744 144.1 62.009 144.125 61.948C144.149 61.887 144.185 61.8317 144.23 61.7851C144.275 61.7385 144.328 61.7017 144.387 61.6767C144.445 61.6517 144.508 61.6391 144.571 61.6395H158.185C158.312 61.6403 158.433 61.6934 158.523 61.7873C158.612 61.8811 158.663 62.0081 158.663 62.1404C158.663 62.2727 158.612 62.3997 158.523 62.4935C158.433 62.5874 158.312 62.6405 158.185 62.6413V62.6413Z" fill="#00B0FF"/>
<path d="M57.4386 25.7176H36.5001C35.9338 25.7169 35.391 25.4821 34.9906 25.0648C34.5902 24.6475 34.3649 24.0817 34.3643 23.4915V7.87554C34.3649 7.28532 34.5901 6.71946 34.9905 6.3021C35.3909 5.88473 35.9338 5.64994 36.5001 5.64923H57.4386C58.0049 5.64988 58.5479 5.88465 58.9483 6.30202C59.3488 6.71939 59.574 7.28528 59.5747 7.87554V23.4915C59.574 24.0817 59.3487 24.6476 58.9483 25.0649C58.5478 25.4822 58.0049 25.7169 57.4386 25.7176V25.7176ZM36.5001 6.65109C36.1886 6.65149 35.8901 6.78064 35.6699 7.01018C35.4497 7.23973 35.3258 7.55094 35.3255 7.87554V23.4915C35.3258 23.8161 35.4497 24.1273 35.6699 24.3568C35.8901 24.5863 36.1886 24.7154 36.5001 24.7157H57.4386C57.7501 24.7154 58.0487 24.5863 58.2689 24.3568C58.4891 24.1273 58.613 23.8161 58.6134 23.4915V7.87554C58.613 7.55092 58.4891 7.2397 58.2689 7.01016C58.0487 6.78062 57.7501 6.65148 57.4386 6.65109H36.5001Z" fill="#E6E6E6"/>
<path d="M53.7762 12.6371H40.1626C40.0357 12.6363 39.9142 12.5832 39.8247 12.4893C39.7352 12.3955 39.6849 12.2685 39.6849 12.1362C39.6849 12.0039 39.7352 11.8769 39.8247 11.7831C39.9142 11.6892 40.0357 11.6361 40.1626 11.6353H53.7762C53.8396 11.6349 53.9024 11.6475 53.9611 11.6725C54.0197 11.6975 54.073 11.7343 54.118 11.7809C54.1629 11.8274 54.1986 11.8828 54.2229 11.9438C54.2473 12.0048 54.2598 12.0701 54.2598 12.1362C54.2598 12.2022 54.2473 12.2676 54.2229 12.3286C54.1986 12.3896 54.1629 12.4449 54.118 12.4915C54.073 12.538 54.0197 12.5749 53.9611 12.5999C53.9024 12.6249 53.8396 12.6375 53.7762 12.6371V12.6371Z" fill="#00B0FF"/>
<path d="M53.7762 16.1845H40.1626C40.0357 16.1837 39.9142 16.1305 39.8247 16.0367C39.7352 15.9428 39.6849 15.8159 39.6849 15.6836C39.6849 15.5512 39.7352 15.4243 39.8247 15.3304C39.9142 15.2366 40.0357 15.1834 40.1626 15.1826H53.7762C53.8396 15.1822 53.9024 15.1949 53.9611 15.2199C54.0197 15.2449 54.073 15.2817 54.118 15.3283C54.1629 15.3748 54.1986 15.4302 54.2229 15.4911C54.2473 15.5521 54.2598 15.6175 54.2598 15.6836C54.2598 15.7496 54.2473 15.815 54.2229 15.876C54.1986 15.9369 54.1629 15.9923 54.118 16.0389C54.073 16.0854 54.0197 16.1222 53.9611 16.1472C53.9024 16.1722 53.8396 16.1849 53.7762 16.1845V16.1845Z" fill="#00B0FF"/>
<path d="M53.7762 19.7316H40.1626C40.0357 19.7308 39.9142 19.6776 39.8247 19.5838C39.7352 19.4899 39.6849 19.363 39.6849 19.2307C39.6849 19.0983 39.7352 18.9714 39.8247 18.8775C39.9142 18.7837 40.0357 18.7306 40.1626 18.7297H53.7762C53.8396 18.7293 53.9024 18.742 53.9611 18.767C54.0197 18.792 54.073 18.8288 54.118 18.8754C54.1629 18.9219 54.1986 18.9773 54.2229 19.0383C54.2473 19.0992 54.2598 19.1646 54.2598 19.2307C54.2598 19.2967 54.2473 19.3621 54.2229 19.4231C54.1986 19.4841 54.1629 19.5394 54.118 19.586C54.073 19.6325 54.0197 19.6694 53.9611 19.6943C53.9024 19.7193 53.8396 19.732 53.7762 19.7316V19.7316Z" fill="#00B0FF"/>
<path d="M126.916 34.3709L106.806 28.2925C106.263 28.1274 105.804 27.7444 105.531 27.2273C105.258 26.7103 105.193 26.1015 105.35 25.5345L109.523 10.5364C109.681 9.96976 110.049 9.49167 110.545 9.20705C111.041 8.92243 111.625 8.85453 112.169 9.01824L132.279 15.0967C132.823 15.2617 133.282 15.6448 133.555 16.1619C133.828 16.679 133.893 17.2879 133.736 17.8549L129.563 32.853C129.404 33.4196 129.037 33.8977 128.541 34.1822C128.044 34.4668 127.46 34.5346 126.916 34.3709V34.3709ZM111.901 9.98046C111.602 9.89044 111.281 9.9278 111.008 10.0843C110.735 10.2409 110.533 10.5038 110.446 10.8155L106.273 25.8135C106.187 26.1253 106.222 26.4602 106.373 26.7445C106.523 27.0289 106.775 27.2395 107.074 27.3302L127.184 33.4086C127.483 33.4987 127.804 33.4614 128.077 33.305C128.35 33.1485 128.552 32.8856 128.639 32.5739L132.812 17.5759C132.899 17.264 132.863 16.9291 132.713 16.6448C132.563 16.3604 132.31 16.1497 132.011 16.0589L111.901 9.98046Z" fill="#E6E6E6"/>
<path d="M126.894 20.7448L113.819 16.7928C113.697 16.7556 113.594 16.6694 113.533 16.5531C113.472 16.4368 113.457 16.2999 113.493 16.1724C113.528 16.045 113.611 15.9374 113.722 15.8734C113.833 15.8093 113.965 15.7939 114.087 15.8306L127.162 19.7826C127.284 19.8196 127.388 19.9058 127.449 20.0221C127.511 20.1385 127.525 20.2756 127.49 20.4032C127.454 20.5308 127.372 20.6385 127.26 20.7025C127.148 20.7666 127.017 20.7818 126.894 20.7448H126.894Z" fill="#00B0FF"/>
<path d="M125.946 24.1518L112.871 20.1998C112.811 20.1815 112.754 20.1509 112.705 20.1098C112.656 20.0687 112.615 20.0179 112.584 19.9602C112.554 19.9026 112.535 19.8393 112.528 19.7739C112.521 19.7085 112.526 19.6424 112.544 19.5792C112.561 19.516 112.591 19.4571 112.63 19.4057C112.669 19.3543 112.718 19.3116 112.774 19.2799C112.829 19.2481 112.89 19.2281 112.952 19.2208C113.015 19.2136 113.079 19.2193 113.139 19.2376L126.214 23.1896C126.336 23.2268 126.439 23.313 126.501 23.4293C126.562 23.5456 126.576 23.6825 126.541 23.8099C126.505 23.9374 126.423 24.0449 126.311 24.109C126.2 24.1731 126.069 24.1885 125.946 24.1518V24.1518Z" fill="#00B0FF"/>
<path d="M124.998 27.5586L111.923 23.6066C111.801 23.5694 111.698 23.4832 111.637 23.3669C111.576 23.2506 111.561 23.1137 111.597 22.9862C111.632 22.8588 111.715 22.7512 111.826 22.6871C111.938 22.623 112.069 22.6077 112.191 22.6444L125.266 26.5964C125.389 26.6334 125.492 26.7195 125.553 26.8359C125.615 26.9523 125.629 27.0894 125.594 27.217C125.558 27.3446 125.476 27.4523 125.364 27.5163C125.252 27.5804 125.121 27.5956 124.998 27.5586V27.5586Z" fill="#00B0FF"/>
<path d="M258 191.057H47.0826V192H258V191.057Z" fill="#E6E6E6"/>
<path d="M169.545 189.583H135.247L136.41 173.83H168.383L169.545 189.583Z" fill="#E6E6E6"/>
<path d="M171.87 187.765H133.503V191.4H171.87V187.765Z" fill="#E6E6E6"/>
<path d="M218.086 72.3417H86.9967C86.0717 72.3417 85.1845 72.7248 84.5304 73.4065C83.8763 74.0883 83.5088 75.013 83.5088 75.9771V75.9771V159.288H221.574V75.9771C221.574 75.4997 221.484 75.027 221.308 74.5859C221.133 74.1449 220.876 73.7441 220.552 73.4065C220.228 73.0689 219.844 72.8012 219.421 72.6185C218.997 72.4358 218.544 72.3417 218.086 72.3417H218.086Z" fill="#3F3D56"/>
<path d="M83.5088 159.288V172.921C83.5088 173.398 83.599 173.871 83.7743 174.312C83.9496 174.753 84.2065 175.154 84.5304 175.491C84.8543 175.829 85.2388 176.097 85.662 176.279C86.0851 176.462 86.5387 176.556 86.9967 176.556H218.086C219.011 176.556 219.898 176.173 220.552 175.491C221.206 174.809 221.574 173.885 221.574 172.921V159.288H83.5088Z" fill="#E6E6E6"/>
<path d="M214.889 79.9155H90.4847V152.623H214.889V79.9155Z" fill="#E6E6E6"/>
<path d="M152.687 171.406C154.613 171.406 156.175 169.778 156.175 167.77C156.175 165.763 154.613 164.135 152.687 164.135C150.76 164.135 149.199 165.763 149.199 167.77C149.199 169.778 150.76 171.406 152.687 171.406Z" fill="#3F3D56"/>
<path d="M94.3637 82.9864C94.7293 82.9864 95.0256 82.6776 95.0256 82.2965C95.0256 81.9155 94.7293 81.6066 94.3637 81.6066C93.9981 81.6066 93.7018 81.9155 93.7018 82.2965C93.7018 82.6776 93.9981 82.9864 94.3637 82.9864Z" fill="white"/>
<path d="M96.8762 82.9864C97.2417 82.9864 97.5381 82.6776 97.5381 82.2965C97.5381 81.9155 97.2417 81.6066 96.8762 81.6066C96.5106 81.6066 96.2142 81.9155 96.2142 82.2965C96.2142 82.6776 96.5106 82.9864 96.8762 82.9864Z" fill="white"/>
<path d="M99.3886 82.9864C99.7542 82.9864 100.051 82.6776 100.051 82.2965C100.051 81.9155 99.7542 81.6066 99.3886 81.6066C99.023 81.6066 98.7267 81.9155 98.7267 82.2965C98.7267 82.6776 99.023 82.9864 99.3886 82.9864Z" fill="white"/>
<path d="M211.303 84.6408H93.7018V145.703H211.303V84.6408Z" fill="white"/>
<path d="M101.519 93.9288C101.409 93.9289 101.303 93.9746 101.225 94.0558C101.147 94.137 101.103 94.2472 101.103 94.3621V116.265C101.103 116.38 101.147 116.49 101.225 116.571C101.303 116.653 101.409 116.698 101.519 116.698H125.788C125.898 116.698 126.004 116.653 126.082 116.571C126.16 116.49 126.203 116.38 126.203 116.265V94.3621C126.203 94.2472 126.16 94.137 126.082 94.0558C126.004 93.9746 125.898 93.9289 125.788 93.9288H101.519Z" fill="#E6E6E6"/>
<path d="M140.485 93.9992C140.375 93.9993 140.269 94.045 140.192 94.1262C140.114 94.2074 140.07 94.3176 140.07 94.4325V116.265C140.07 116.38 140.114 116.49 140.192 116.571C140.269 116.653 140.375 116.698 140.485 116.698H164.677C164.787 116.698 164.893 116.652 164.971 116.571C165.048 116.49 165.092 116.38 165.092 116.265V94.4325C165.092 94.3177 165.048 94.2075 164.971 94.1263C164.893 94.0451 164.787 93.9993 164.677 93.9992H140.485Z" fill="#E6E6E6"/>
<path d="M179.043 93.7703C178.933 93.7705 178.827 93.8162 178.749 93.8974C178.671 93.9786 178.628 94.0888 178.627 94.2036V116.265C178.628 116.38 178.671 116.49 178.749 116.571C178.827 116.652 178.933 116.698 179.043 116.698H203.486C203.596 116.698 203.702 116.652 203.78 116.571C203.858 116.49 203.901 116.38 203.901 116.265V94.2036C203.901 94.0888 203.858 93.9786 203.78 93.8974C203.702 93.8162 203.596 93.7705 203.486 93.7703H179.043Z" fill="#E6E6E6"/>
<path d="M101.963 127.54C101.735 127.541 101.517 127.635 101.356 127.803C101.195 127.971 101.105 128.199 101.105 128.436C101.105 128.673 101.195 128.901 101.356 129.069C101.517 129.237 101.735 129.331 101.963 129.332H124.78C125.008 129.331 125.226 129.237 125.387 129.069C125.548 128.901 125.638 128.673 125.638 128.436C125.638 128.199 125.548 127.971 125.387 127.803C125.226 127.635 125.008 127.541 124.78 127.54H101.963Z" fill="#E6E6E6"/>
<path d="M101.963 131.801C101.735 131.802 101.517 131.896 101.356 132.064C101.195 132.232 101.105 132.46 101.105 132.697C101.105 132.935 101.195 133.162 101.356 133.33C101.517 133.498 101.735 133.593 101.963 133.593H112.236C112.464 133.593 112.682 133.498 112.843 133.33C113.004 133.162 113.094 132.935 113.094 132.697C113.094 132.46 113.004 132.232 112.843 132.064C112.682 131.896 112.464 131.802 112.236 131.801H101.963Z" fill="#00B0FF"/>
<path d="M141.348 127.54C141.12 127.541 140.902 127.635 140.741 127.803C140.58 127.971 140.49 128.199 140.49 128.436C140.49 128.673 140.58 128.901 140.741 129.069C140.902 129.237 141.12 129.331 141.348 129.332H164.165C164.393 129.331 164.611 129.237 164.772 129.069C164.933 128.901 165.023 128.673 165.023 128.436C165.023 128.199 164.933 127.971 164.772 127.803C164.611 127.635 164.393 127.541 164.165 127.54H141.348Z" fill="#E6E6E6"/>
<path d="M141.348 131.801C141.12 131.802 140.902 131.896 140.741 132.064C140.58 132.232 140.49 132.46 140.49 132.697C140.49 132.935 140.58 133.162 140.741 133.33C140.902 133.498 141.12 133.593 141.348 133.593H151.621C151.849 133.593 152.067 133.498 152.228 133.33C152.389 133.162 152.479 132.935 152.479 132.697C152.479 132.46 152.389 132.232 152.228 132.064C152.067 131.896 151.849 131.802 151.621 131.801H141.348Z" fill="#00B0FF"/>
<path d="M179.748 127.54C179.521 127.541 179.303 127.635 179.142 127.803C178.981 127.971 178.891 128.199 178.891 128.436C178.891 128.673 178.981 128.901 179.142 129.069C179.303 129.237 179.521 129.331 179.748 129.332H202.566C202.793 129.331 203.012 129.237 203.172 129.069C203.333 128.901 203.424 128.673 203.424 128.436C203.424 128.199 203.333 127.971 203.172 127.803C203.012 127.635 202.793 127.541 202.566 127.54H179.748Z" fill="#E6E6E6"/>
<path d="M101.963 123.139C101.735 123.14 101.517 123.234 101.356 123.402C101.195 123.57 101.105 123.798 101.105 124.035C101.105 124.272 101.195 124.5 101.356 124.668C101.517 124.836 101.735 124.93 101.963 124.931H124.78C125.008 124.93 125.226 124.836 125.387 124.668C125.548 124.5 125.638 124.272 125.638 124.035C125.638 123.798 125.548 123.57 125.387 123.402C125.226 123.234 125.008 123.14 124.78 123.139H101.963Z" fill="#E6E6E6"/>
<path d="M141.348 123.139C141.12 123.14 140.902 123.234 140.741 123.402C140.58 123.57 140.49 123.798 140.49 124.035C140.49 124.272 140.58 124.5 140.741 124.668C140.902 124.836 141.12 124.93 141.348 124.931H164.165C164.393 124.93 164.611 124.836 164.772 124.668C164.933 124.5 165.023 124.272 165.023 124.035C165.023 123.798 164.933 123.57 164.772 123.402C164.611 123.234 164.393 123.14 164.165 123.139H141.348Z" fill="#E6E6E6"/>
<path d="M179.748 123.139C179.521 123.14 179.303 123.234 179.142 123.402C178.981 123.57 178.891 123.798 178.891 124.035C178.891 124.272 178.981 124.5 179.142 124.668C179.303 124.836 179.521 124.93 179.748 124.931H202.566C202.793 124.93 203.012 124.836 203.172 124.668C203.333 124.5 203.424 124.272 203.424 124.035C203.424 123.798 203.333 123.57 203.172 123.402C203.012 123.234 202.793 123.14 202.566 123.139H179.748Z" fill="#E6E6E6"/>
<path d="M179.749 131.801C179.521 131.802 179.303 131.896 179.142 132.064C178.981 132.232 178.891 132.46 178.891 132.697C178.891 132.935 178.981 133.162 179.142 133.33C179.303 133.498 179.521 133.593 179.749 133.593H190.022C190.249 133.593 190.468 133.498 190.629 133.33C190.789 133.162 190.88 132.935 190.88 132.697C190.88 132.46 190.789 132.232 190.629 132.064C190.468 131.896 190.249 131.802 190.022 131.801H179.749Z" fill="#00B0FF"/>
</svg>
