<svg width="293" height="184" viewBox="0 0 293 184" fill="none" xmlns="http://www.w3.org/2000/svg">
<g clip-path="url(#clip0)">
<path opacity="0.5" d="M145.927 183.245C186.204 183.245 218.855 178.538 218.855 172.731C218.855 166.924 186.204 162.217 145.927 162.217C105.651 162.217 73.0001 166.924 73.0001 172.731C73.0001 178.538 105.651 183.245 145.927 183.245Z" fill="#DEE3F3"/>
<g opacity="0.45">
<path opacity="0.45" d="M128.411 63.3205C128.412 63.438 128.422 63.5554 128.44 63.6719C128.422 63.5554 128.412 63.438 128.411 63.3205Z" fill="#00B0FF"/>
<path opacity="0.45" d="M165.136 55.7683C165.141 55.7999 165.148 55.831 165.152 55.8629C165.148 55.831 165.141 55.7999 165.136 55.7683Z" fill="#00B0FF"/>
<path opacity="0.45" d="M165.059 55.4568C165.07 55.4897 165.08 55.5226 165.089 55.5559C165.08 55.5226 165.07 55.4897 165.059 55.4568Z" fill="#00B0FF"/>
<path opacity="0.45" d="M165.098 63.9115C165.084 63.9657 165.067 64.0192 165.05 64.0722C165.068 64.0192 165.084 63.9658 165.098 63.9115Z" fill="#00B0FF"/>
<path opacity="0.45" d="M165.149 63.6536C165.141 63.7112 165.131 63.7685 165.119 63.825C165.131 63.7685 165.141 63.7113 165.149 63.6536Z" fill="#00B0FF"/>
<path opacity="0.45" d="M130.109 65.7208C129.865 65.6108 129.638 65.4739 129.435 65.3135C129.638 65.474 129.865 65.6109 130.109 65.7208V65.7208Z" fill="#00B0FF"/>
<path opacity="0.45" d="M129.41 65.2942C129.315 65.2174 129.225 65.1356 129.141 65.0493C129.225 65.1357 129.315 65.2174 129.41 65.2942Z" fill="#00B0FF"/>
<path opacity="0.45" d="M183.604 116.983C183.567 116.876 183.522 116.771 183.47 116.668C183.522 116.771 183.567 116.876 183.604 116.983V116.983Z" fill="#00B0FF"/>
<path opacity="0.45" d="M182.035 115.353C182.16 115.408 182.28 115.471 182.395 115.541C182.28 115.471 182.16 115.408 182.035 115.353V115.353Z" fill="#00B0FF"/>
<path opacity="0.45" d="M182.741 115.784C182.934 115.94 183.103 116.116 183.245 116.307C183.103 116.116 182.934 115.94 182.741 115.784Z" fill="#00B0FF"/>
<path opacity="0.45" d="M182.406 115.548C182.51 115.612 182.61 115.681 182.705 115.756C182.61 115.681 182.51 115.612 182.406 115.548V115.548Z" fill="#00B0FF"/>
<path opacity="0.45" d="M183.443 116.62C183.396 116.532 183.343 116.447 183.285 116.364C183.343 116.447 183.396 116.532 183.443 116.62V116.62Z" fill="#00B0FF"/>
<path opacity="0.45" d="M183.691 117.317C183.674 117.227 183.652 117.137 183.624 117.049C183.652 117.137 183.674 117.227 183.691 117.317V117.317Z" fill="#00B0FF"/>
<path opacity="0.45" d="M278.737 102.485H260.604C261.023 102.236 261.365 101.904 261.601 101.517C261.838 101.13 261.961 100.699 261.961 100.262V93.1167C261.961 92.7611 261.879 92.409 261.721 92.0805C261.562 91.752 261.33 91.4535 261.037 91.202C260.744 90.9506 260.396 90.7511 260.013 90.6151C259.631 90.479 259.22 90.4089 258.806 90.4089H237.935C238.572 90.2343 239.129 89.8903 239.523 89.4267C239.918 88.963 240.131 88.4036 240.131 87.8294V80.6842C240.131 80.2471 240.008 79.8165 239.771 79.4292C239.535 79.042 239.193 78.7097 238.774 78.4609H258.806C259.22 78.4609 259.631 78.3908 260.013 78.2547C260.396 78.1186 260.744 77.9192 261.037 77.6677C261.33 77.4163 261.562 77.1178 261.721 76.7893C261.879 76.4607 261.961 76.1086 261.961 75.753V68.6078C261.961 68.2523 261.879 67.9001 261.721 67.5716C261.562 67.2431 261.33 66.9446 261.037 66.6931C260.744 66.4417 260.396 66.2422 260.013 66.1062C259.631 65.9701 259.22 65.9 258.806 65.9H236.507C237.145 65.7254 237.701 65.3814 238.096 64.9178C238.49 64.4541 238.703 63.8948 238.703 63.3205V56.1753C238.703 55.7382 238.58 55.3076 238.344 54.9203C238.107 54.5331 237.765 54.2008 237.347 53.952H258.806C259.22 53.952 259.631 53.8819 260.013 53.7458C260.396 53.6097 260.744 53.4103 261.037 53.1588C261.33 52.9074 261.562 52.6089 261.721 52.2804C261.879 51.9519 261.961 51.5997 261.961 51.2442V44.0989C261.961 43.7434 261.879 43.3912 261.721 43.0627C261.562 42.7342 261.33 42.4357 261.037 42.1843C260.744 41.9328 260.396 41.7334 260.013 41.5973C259.631 41.4612 259.22 41.3912 258.806 41.3912H247.572C248.21 41.2165 248.766 40.8726 249.16 40.4089C249.555 39.9452 249.768 39.3859 249.768 38.8116V31.6664C249.768 31.3108 249.686 30.9587 249.528 30.6302C249.369 30.3017 249.137 30.0032 248.844 29.7517C248.551 29.5003 248.203 29.3008 247.821 29.1647C247.438 29.0287 247.028 28.9586 246.613 28.9586H216.159C215.745 28.9586 215.334 29.0286 214.952 29.1647C214.569 29.3008 214.221 29.5003 213.928 29.7517C213.635 30.0031 213.403 30.3017 213.244 30.6302C213.086 30.9587 213.004 31.3108 213.004 31.6664C213.004 31.3108 212.923 30.9587 212.764 30.6302C212.605 30.3017 212.373 30.0031 212.08 29.7517C211.787 29.5003 211.439 29.3008 211.057 29.1647C210.674 29.0286 210.264 28.9586 209.849 28.9586H179.395C178.794 28.9589 178.205 29.1066 177.699 29.3844C177.192 29.6622 176.789 30.0584 176.536 30.5265C176.577 30.7001 176.597 30.8767 176.597 31.0537V38.1989C176.597 38.5922 176.496 38.9806 176.302 39.3369C176.444 39.9539 176.832 40.509 177.4 40.9067H185.221C185.95 40.9059 186.656 41.1225 187.219 41.5194H190.629C189.992 41.6941 189.435 42.038 189.041 42.5017C188.646 42.9654 188.433 43.5247 188.433 44.0989C188.432 43.9267 188.413 43.7549 188.374 43.5859C188.374 43.5955 188.376 43.6048 188.376 43.6145V50.7597C188.375 50.9876 188.34 51.2145 188.273 51.4349C188.324 51.4809 188.369 51.5309 188.408 51.5843C188.425 51.4715 188.433 51.3579 188.433 51.2441C188.435 51.4011 188.452 51.5577 188.486 51.7121C188.528 51.7982 188.552 51.89 188.557 51.9832C188.756 52.5853 189.191 53.1097 189.79 53.4675H187.076C187.101 53.453 187.122 53.4355 187.146 53.4204C186.894 53.4258 186.64 53.4022 186.388 53.3997C186.298 53.3988 186.209 53.3829 186.126 53.3531C185.832 53.4288 185.528 53.4673 185.221 53.4675L166.532 53.9519C166.113 54.2008 165.771 54.5331 165.535 54.9203C165.298 55.3075 165.175 55.7382 165.175 56.1753V63.3205C165.175 63.8947 165.388 64.4541 165.783 64.9178C166.178 65.3814 166.734 65.7254 167.371 65.9L185.221 66.0283C185.535 66.0282 185.847 66.0683 186.147 66.1473C186.346 66.1623 186.544 66.192 186.737 66.2363C186.752 66.2334 186.767 66.2324 186.781 66.2297C186.608 66.148 186.426 66.0805 186.237 66.0283H190.629C189.992 66.2029 189.435 66.5469 189.041 67.0106C188.646 67.4742 188.433 68.0336 188.433 68.6078C188.433 68.4508 188.417 68.2941 188.385 68.1395C188.364 68.1653 188.341 68.1896 188.316 68.2122C188.355 68.3848 188.376 68.5602 188.376 68.7361V75.8813C188.376 76.2128 188.433 76.1331 188.433 75.753C188.433 76.1902 188.556 76.6208 188.793 77.008C189.029 77.3953 189.371 77.7275 189.79 77.9764L200.926 78.2828C201.308 78.2833 201.687 78.3436 202.044 78.4608H204.724C204.244 78.7486 203.867 79.1449 203.633 79.6056C203.926 80.0239 204.081 80.5026 204.081 80.9906V88.1358C204.081 88.5088 203.991 88.8777 203.816 89.2193C204.211 89.7847 204.832 90.2075 205.563 90.4089H202.637C202.127 90.6928 201.533 90.8438 200.926 90.8436H189.879C189.435 91.0883 189.071 91.4247 188.818 91.8218C188.565 92.219 188.433 92.6642 188.433 93.1167C188.433 92.1625 188.019 101.566 188.019 101.566C188.019 102.411 205.209 102.792 205.209 102.792C205.646 102.792 206.078 102.87 206.478 103.021C206.657 102.988 206.841 102.975 207.024 102.981C207.018 102.977 207.013 102.973 207.007 102.97H209.721C209.302 103.219 208.96 103.551 208.723 103.938C208.487 104.325 208.364 104.756 208.364 105.193C208.363 105.064 208.352 104.935 208.329 104.807C208.314 104.836 208.299 104.865 208.282 104.893C208.336 105.092 208.363 105.295 208.364 105.499V112.338C208.364 112.694 208.446 113.046 208.604 113.375C208.763 113.703 208.995 114.002 209.288 114.253C209.581 114.504 209.929 114.704 210.312 114.84C210.694 114.976 211.105 115.046 211.519 115.046H206.664C206.215 115.247 205.716 115.353 205.209 115.352H185.436C184.924 115.581 184.494 115.925 184.194 116.349C183.894 116.772 183.736 117.258 183.736 117.754V124.899C183.736 125.255 183.817 125.607 183.976 125.935C184.134 126.264 184.367 126.562 184.66 126.814C184.953 127.065 185.3 127.265 185.683 127.401C186.066 127.537 186.476 127.607 186.891 127.607H217.345C217.759 127.607 218.169 127.537 218.552 127.401C218.935 127.265 219.283 127.065 219.576 126.814C219.869 126.562 220.101 126.264 220.26 125.935C220.418 125.607 220.5 125.255 220.5 124.899C220.5 125.255 220.581 125.607 220.74 125.935C220.898 126.264 221.131 126.562 221.424 126.814C221.717 127.065 222.064 127.265 222.447 127.401C222.83 127.537 223.24 127.607 223.654 127.607H254.109C254.523 127.607 254.933 127.537 255.316 127.401C255.699 127.265 256.047 127.065 256.34 126.814C256.633 126.562 256.865 126.264 257.023 125.935C257.182 125.607 257.264 125.255 257.264 124.899V117.754C257.264 117.398 257.182 117.046 257.023 116.718C256.865 116.389 256.633 116.091 256.34 115.839C256.047 115.588 255.699 115.388 255.316 115.252C254.933 115.116 254.523 115.046 254.109 115.046H278.737C279.151 115.046 279.562 114.976 279.944 114.84C280.327 114.704 280.675 114.504 280.968 114.253C281.261 114.002 281.493 113.703 281.652 113.375C281.81 113.046 281.892 112.694 281.892 112.338V105.193C281.892 104.838 281.81 104.485 281.652 104.157C281.493 103.828 281.261 103.53 280.968 103.278C280.675 103.027 280.327 102.827 279.944 102.691C279.562 102.555 279.151 102.485 278.737 102.485V102.485ZM203.296 53.952C202.877 54.2008 202.535 54.5331 202.299 54.9203C202.062 55.3076 201.939 55.7382 201.939 56.1753C201.939 55.7382 201.816 55.3076 201.58 54.9203C201.343 54.5331 201.001 54.2008 200.583 53.952H203.296ZM199.743 65.9C200.381 65.7254 200.937 65.3814 201.332 64.9178C201.726 64.4541 201.939 63.8948 201.939 63.3205C201.939 63.8948 202.152 64.4541 202.547 64.9178C202.942 65.3814 203.498 65.7254 204.135 65.9H199.743ZM210.808 41.3912C211.446 41.2165 212.002 40.8726 212.397 40.4089C212.791 39.9452 213.004 39.3859 213.004 38.8116C213.004 39.3859 213.217 39.9452 213.612 40.4089C214.006 40.8726 214.563 41.2165 215.2 41.3912H210.808ZM220.5 117.754C220.5 117.398 220.418 117.046 220.26 116.718C220.101 116.389 219.869 116.091 219.576 115.839C219.283 115.588 218.935 115.388 218.552 115.252C218.169 115.116 217.759 115.046 217.345 115.046H223.654C223.24 115.046 222.83 115.116 222.447 115.252C222.064 115.388 221.717 115.588 221.424 115.839C221.131 116.091 220.898 116.389 220.74 116.718C220.581 117.046 220.5 117.398 220.5 117.754V117.754ZM223.84 102.485C224.259 102.236 224.601 101.904 224.837 101.517C225.074 101.13 225.197 100.699 225.197 100.262C225.197 100.699 225.32 101.13 225.556 101.517C225.793 101.904 226.135 102.236 226.554 102.485H223.84ZM225.197 93.1167C225.197 92.5425 224.984 91.9832 224.589 91.5195C224.195 91.0558 223.638 90.7118 223.001 90.5372H227.393C226.755 90.7118 226.199 91.0558 225.805 91.5195C225.41 91.9831 225.197 92.5425 225.197 93.1167V93.1167ZM223.84 77.9764C224.259 77.7276 224.601 77.3953 224.837 77.008C225.074 76.6208 225.197 76.1902 225.197 75.753C225.197 76.1902 225.32 76.6208 225.556 77.0081C225.793 77.3953 226.135 77.7276 226.554 77.9764H223.84ZM225.197 68.6078C225.197 68.0336 224.984 67.4743 224.589 67.0106C224.195 66.5469 223.638 66.2029 223.001 66.0283H227.393C226.755 66.2029 226.199 66.5469 225.805 67.0106C225.41 67.4743 225.197 68.0336 225.197 68.6078V68.6078ZM223.84 53.4675C224.259 53.2187 224.601 52.8864 224.837 52.4992C225.074 52.1119 225.197 51.6813 225.197 51.2442C225.197 51.6813 225.32 52.1119 225.556 52.4992C225.793 52.8864 226.135 53.2187 226.554 53.4675H223.84ZM225.197 44.0989C225.197 43.5247 224.984 42.9654 224.589 42.5017C224.195 42.038 223.638 41.6941 223.001 41.5194H227.393C226.755 41.6941 226.199 42.038 225.805 42.5017C225.41 42.9654 225.197 43.5247 225.197 44.0989V44.0989ZM246.485 102.97C246.066 103.219 245.724 103.551 245.487 103.938C245.251 104.325 245.128 104.756 245.128 105.193C245.128 104.756 245.005 104.325 244.768 103.938C244.532 103.551 244.19 103.219 243.771 102.97H246.485ZM241.973 115.046C242.387 115.046 242.798 114.976 243.18 114.84C243.563 114.704 243.911 114.504 244.204 114.253C244.497 114.002 244.729 113.703 244.888 113.375C245.046 113.046 245.128 112.694 245.128 112.338C245.128 112.694 245.21 113.046 245.368 113.375C245.527 113.703 245.759 114.002 246.052 114.253C246.345 114.504 246.693 114.704 247.075 114.84C247.458 114.976 247.868 115.046 248.283 115.046H241.973Z" fill="#00B0FF"/>
<path opacity="0.45" d="M183.736 117.754C183.735 117.639 183.725 117.523 183.707 117.409C183.725 117.523 183.735 117.639 183.736 117.754Z" fill="#00B0FF"/>
<path opacity="0.45" d="M165.175 63.3205C165.175 63.4063 165.169 63.4909 165.16 63.5746C165.169 63.4909 165.175 63.4063 165.175 63.3205Z" fill="#00B0FF"/>
<path opacity="0.45" d="M128.448 63.7243C128.467 63.833 128.494 63.9405 128.528 64.0463C128.494 63.9405 128.467 63.833 128.448 63.7243V63.7243Z" fill="#00B0FF"/>
<path opacity="0.45" d="M93.143 79.6898C93.0906 79.6499 93.0452 79.6038 93.0084 79.5527C92.9628 79.4826 92.9325 79.4061 92.9189 79.3267C92.9111 79.5123 92.9144 79.6982 92.9286 79.8835C93.0243 80.1425 93.0737 80.4125 93.0751 80.6842C93.0765 80.4202 93.1231 80.1577 93.2135 79.9053C93.1849 79.844 93.1626 79.7806 93.147 79.7159C93.1449 79.707 93.1449 79.6986 93.143 79.6898Z" fill="#00B0FF"/>
<path opacity="0.45" d="M136.321 28.9586H105.867C105.453 28.9586 105.043 29.0287 104.66 29.1647C104.277 29.3008 103.929 29.5003 103.636 29.7517C103.343 30.0032 103.111 30.3017 102.952 30.6302C102.794 30.9587 102.712 31.3108 102.712 31.6664C102.712 31.3108 102.631 30.9587 102.472 30.6302C102.314 30.3017 102.081 30.0032 101.788 29.7517C101.495 29.5003 101.148 29.3008 100.765 29.1647C100.382 29.0287 99.9718 28.9586 99.5575 28.9586H69.1031C68.6888 28.9586 68.2786 29.0287 67.8958 29.1647C67.5131 29.3008 67.1653 29.5003 66.8724 29.7517C66.5794 30.0032 66.347 30.3017 66.1885 30.6302C66.0299 30.9587 65.9483 31.3108 65.9483 31.6664V38.8116C65.9485 39.3859 66.1613 39.9452 66.556 40.4089C66.9507 40.8726 67.5069 41.2165 68.1442 41.3912H44.5321C44.1178 41.3912 43.7075 41.4612 43.3248 41.5973C42.942 41.7334 42.5942 41.9328 42.3013 42.1842C42.0083 42.4357 41.776 42.7342 41.6174 43.0627C41.4589 43.3912 41.3773 43.7434 41.3773 44.0989V51.2442C41.3771 51.6813 41.5005 52.1119 41.7368 52.4992C41.973 52.8864 42.3152 53.2187 42.7339 53.4675H21.2743C20.86 53.4675 20.4498 53.5376 20.067 53.6736C19.6842 53.8097 19.3365 54.0092 19.0435 54.2606C18.7506 54.5121 18.5182 54.8106 18.3596 55.1391C18.2011 55.4676 18.1195 55.8197 18.1195 56.1753V63.3205C18.1195 63.6761 18.2011 64.0282 18.3596 64.3567C18.5182 64.6853 18.7506 64.9838 19.0435 65.2352C19.3365 65.4867 19.6842 65.6861 20.067 65.8222C20.4498 65.9583 20.86 66.0283 21.2743 66.0283H43.5731C42.9358 66.203 42.3796 66.5469 41.9849 67.0106C41.5902 67.4743 41.3774 68.0336 41.3773 68.6078V75.7531C41.3771 76.1902 41.5005 76.6208 41.7368 77.0081C41.973 77.3953 42.3152 77.7276 42.7339 77.9764H22.702C22.2877 77.9764 21.8775 78.0465 21.4947 78.1825C21.112 78.3186 20.7642 78.5181 20.4712 78.7695C20.1783 79.021 19.9459 79.3195 19.7874 79.648C19.6288 79.9765 19.5472 80.3286 19.5472 80.6842V87.8294C19.5472 88.185 19.6288 88.5371 19.7874 88.8656C19.9459 89.1942 20.1783 89.4927 20.4712 89.7441C20.7642 89.9956 21.112 90.195 21.4947 90.3311C21.8775 90.4672 22.2877 90.5372 22.702 90.5372H43.5731C42.9358 90.7119 42.3796 91.0558 41.9849 91.5195C41.5902 91.9832 41.3774 92.5425 41.3773 93.1168V100.262C41.3773 100.618 41.4589 100.97 41.6174 101.298C41.776 101.627 42.0083 101.925 42.3013 102.177C42.5942 102.428 42.942 102.628 43.3248 102.764C43.7075 102.9 44.1178 102.97 44.5321 102.97H62.6648C62.2461 103.219 61.904 103.551 61.6677 103.938C61.4314 104.325 61.3081 104.756 61.3082 105.193V112.338C61.3082 113.056 61.6406 113.745 62.2322 114.253C62.8239 114.761 63.6263 115.046 64.463 115.046H39.8347C39.4204 115.046 39.0102 115.116 38.6274 115.252C38.2447 115.388 37.8969 115.588 37.604 115.839C37.311 116.091 37.0786 116.389 36.9201 116.718C36.7615 117.046 36.6799 117.398 36.6799 117.754V124.899C36.6799 125.255 36.7615 125.607 36.9201 125.935C37.0786 126.264 37.311 126.562 37.604 126.814C37.8969 127.065 38.2447 127.265 38.6274 127.401C39.0102 127.537 39.4204 127.607 39.8347 127.607H70.2891C70.7034 127.607 71.1136 127.537 71.4964 127.401C71.8791 127.265 72.2269 127.065 72.5199 126.814C72.8128 126.562 73.0452 126.264 73.2038 125.935C73.3623 125.607 73.4439 125.255 73.4439 124.899C73.4439 125.255 73.5255 125.607 73.684 125.935C73.8426 126.264 74.075 126.562 74.3679 126.814C74.6609 127.065 75.0086 127.265 75.3914 127.401C75.7742 127.537 76.1844 127.607 76.5987 127.607H107.053C107.467 127.607 107.878 127.537 108.26 127.401C108.643 127.265 108.991 127.065 109.284 126.814C109.577 126.562 109.809 126.264 109.968 125.935C110.126 125.607 110.208 125.255 110.208 124.899V117.754C110.208 117.258 110.049 116.772 109.749 116.349C109.449 115.925 109.02 115.581 108.507 115.352H101.941C101.434 115.353 100.935 115.247 100.487 115.046H94.9174C95.7541 115.046 96.5565 114.761 97.1482 114.253C97.7398 113.745 98.0722 113.056 98.0722 112.338C98.0722 113.517 98.786 105.499 98.786 105.499C98.786 105.144 98.8676 104.792 99.0262 104.463C99.1847 104.135 99.4171 103.836 99.71 103.585C100.003 103.333 100.351 103.134 100.734 102.998C101.116 102.862 101.527 102.792 101.941 102.792L113.549 102.485C113.88 102.286 114.163 102.035 114.384 101.745C114.22 101.413 114.135 101.057 114.134 100.697V93.5514C114.133 93.0215 114.315 92.5032 114.656 92.0614C114.408 91.5619 113.991 91.1377 113.46 90.8436H96.9438C96.3366 90.8438 95.7424 90.6929 95.2333 90.409H90.8792C91.5166 90.2343 92.0728 89.8904 92.4675 89.4267C92.8622 88.963 93.075 88.4037 93.0751 87.8294L92.9633 80.7364C92.9633 80.4167 92.9434 80.134 92.9286 79.8835C92.7209 79.307 92.295 78.8063 91.7185 78.4609H94.4317C94.4113 78.4731 94.3932 78.4878 94.3731 78.5004C95.9111 78.4247 113.481 77.5402 114.909 76.5534C114.873 76.3661 114.866 76.1755 114.888 75.9866C114.863 75.8505 114.849 75.7128 114.848 75.575V68.4298C114.848 68.3411 114.854 68.2536 114.863 68.1671C114.768 67.675 114.517 67.215 114.137 66.8376C113.757 66.4603 113.263 66.1802 112.709 66.0283H116.548C116.997 65.827 117.496 65.7219 118.003 65.722H126.711C127.223 65.4938 127.653 65.1491 127.953 64.7256C128.253 64.3022 128.411 63.8161 128.411 63.3205V56.1753C128.411 55.7382 128.288 55.3076 128.052 54.9203C127.816 54.5331 127.473 54.2008 127.055 53.952L118.003 53.4675C116.469 53.4675 115.454 52.9853 116.262 53.4675H113.548C113.964 53.2201 114.305 52.8904 114.541 52.5061C114.777 52.1219 114.901 51.6945 114.904 51.2602C114.867 51.0952 114.849 50.9277 114.848 50.7597V43.6145C114.848 43.6087 114.849 43.603 114.849 43.5972C114.743 43.1176 114.489 42.6714 114.112 42.3057C113.736 41.94 113.251 41.6683 112.709 41.5194H116.005C116.568 41.1225 117.274 40.9059 118.003 40.9067H138.317C138.679 40.6534 138.971 40.3339 139.172 39.9715C139.373 39.6091 139.476 39.2129 139.476 38.8116V31.6664C139.476 31.3108 139.395 30.9587 139.236 30.6302C139.078 30.3017 138.845 30.0032 138.552 29.7517C138.259 29.5003 137.911 29.3008 137.529 29.1647C137.146 29.0287 136.736 28.9586 136.321 28.9586V28.9586ZM56.2401 53.952C55.8214 54.2008 55.4792 54.5331 55.2429 54.9203C55.0067 55.3076 54.8833 55.7382 54.8835 56.1753C54.8836 55.7382 54.7602 55.3076 54.524 54.9203C54.2877 54.5331 53.9455 54.2008 53.5268 53.952H56.2401ZM54.8835 63.3205C54.8836 63.8948 55.0964 64.4541 55.4911 64.9178C55.8858 65.3815 56.442 65.7254 57.0793 65.9001H52.6876C53.3249 65.7254 53.8811 65.3815 54.2758 64.9178C54.6705 64.4541 54.8833 63.8948 54.8835 63.3205V63.3205ZM57.6678 78.4609C57.2491 78.7097 56.9069 79.042 56.6707 79.4292C56.4344 79.8165 56.311 80.2471 56.3112 80.6842C56.3113 80.2471 56.188 79.8165 55.9517 79.4292C55.7154 79.042 55.3733 78.7097 54.9546 78.4609H57.6678ZM54.1153 90.409C54.7527 90.2343 55.3089 89.8904 55.7036 89.4267C56.0983 88.963 56.3111 88.4037 56.3112 87.8294C56.3113 88.4037 56.5241 88.963 56.9188 89.4267C57.3135 89.8904 57.8697 90.2343 58.5071 90.409H54.1153ZM93.004 53.952C92.5853 54.2008 92.2432 54.5331 92.0069 54.9203C91.7706 55.3076 91.6473 55.7382 91.6474 56.1753C91.6475 55.7382 91.5242 55.3076 91.2879 54.9203C91.0516 54.5331 90.7095 54.2008 90.2908 53.952H93.004ZM73.4439 117.754C73.4439 117.398 73.3623 117.046 73.2038 116.718C73.0452 116.389 72.8128 116.091 72.5199 115.839C72.2269 115.588 71.8792 115.388 71.4964 115.252C71.1136 115.116 70.7034 115.046 70.2891 115.046H76.5987C76.1844 115.046 75.7742 115.116 75.3914 115.252C75.0086 115.388 74.6609 115.588 74.3679 115.839C74.075 116.091 73.8426 116.389 73.684 116.718C73.5255 117.046 73.4439 117.398 73.4439 117.754V117.754ZM76.7846 102.485C77.2033 102.236 77.5454 101.904 77.7817 101.517C78.018 101.13 78.1414 100.699 78.1412 100.262C78.1411 100.699 78.2644 101.13 78.5007 101.517C78.737 101.904 79.0792 102.236 79.4979 102.485H76.7846ZM78.1412 93.1168C78.1411 92.5425 77.9283 91.9832 77.5336 91.5195C77.1389 91.0558 76.5827 90.7119 75.9454 90.5372H80.3371C79.6997 90.7119 79.1435 91.0558 78.7488 91.5195C78.3541 91.9832 78.1414 92.5425 78.1412 93.1168V93.1168ZM76.7846 77.9764C77.2033 77.7276 77.5454 77.3953 77.7817 77.0081C78.018 76.6208 78.1414 76.1902 78.1412 75.7531C78.1411 76.1902 78.2644 76.6208 78.5007 77.0081C78.737 77.3953 79.0792 77.7276 79.4979 77.9764H76.7846ZM78.1412 68.6079C78.1411 68.0336 77.9283 67.4743 77.5336 67.0106C77.1389 66.5469 76.5827 66.203 75.9454 66.0283H80.3371C79.6997 66.203 79.1435 66.5469 78.7488 67.0106C78.3541 67.4743 78.1414 68.0336 78.1412 68.6079V68.6079ZM76.7846 53.4675C77.2033 53.2187 77.5454 52.8864 77.7817 52.4992C78.018 52.1119 78.1414 51.6813 78.1412 51.2442C78.1411 51.6813 78.2644 52.1119 78.5007 52.4992C78.737 52.8864 79.0792 53.2187 79.4979 53.4675H76.7846ZM78.1412 44.0989C78.1411 43.5247 77.9283 42.9654 77.5336 42.5017C77.1389 42.038 76.5827 41.6941 75.9454 41.5194H80.3371C79.6997 41.6941 79.1435 42.038 78.7488 42.5017C78.3541 42.9654 78.1414 43.5247 78.1412 44.0989V44.0989ZM89.4515 65.9001C90.0889 65.7254 90.6451 65.3815 91.0398 64.9178C91.4345 64.4541 91.6473 63.8948 91.6474 63.3205C91.6475 63.8948 91.8603 64.4541 92.255 64.9178C92.6497 65.3815 93.2059 65.7254 93.8433 65.9001H89.4515ZM100.516 41.3912C101.154 41.2166 101.71 40.8726 102.105 40.4089C102.499 39.9452 102.712 39.3859 102.712 38.8116C102.712 39.3859 102.925 39.9452 103.32 40.4089C103.715 40.8726 104.271 41.2166 104.908 41.3912H100.516Z" fill="#00B0FF"/>
<path opacity="0.45" d="M129.448 54.1727C129.463 54.1609 129.478 54.149 129.493 54.1375C129.478 54.149 129.463 54.1609 129.448 54.1727Z" fill="#00B0FF"/>
<path opacity="0.45" d="M129.239 54.3518C129.223 54.3665 129.208 54.3809 129.192 54.3959C129.208 54.3809 129.223 54.3665 129.239 54.3518Z" fill="#00B0FF"/>
<path opacity="0.45" d="M128.974 54.6347C128.981 54.6255 128.989 54.617 128.997 54.6078C128.989 54.617 128.981 54.6255 128.974 54.6347Z" fill="#00B0FF"/>
<path opacity="0.45" d="M128.547 64.1014C128.584 64.2068 128.628 64.3102 128.679 64.411C128.628 64.3102 128.584 64.2068 128.547 64.1014V64.1014Z" fill="#00B0FF"/>
<path opacity="0.45" d="M128.883 64.7444C128.954 64.8415 129.032 64.9346 129.117 65.0232C129.032 64.9346 128.954 64.8415 128.883 64.7444Z" fill="#00B0FF"/>
<path opacity="0.45" d="M128.695 64.4395C128.75 64.5435 128.812 64.6445 128.882 64.7417C128.812 64.6445 128.75 64.5436 128.695 64.4395V64.4395Z" fill="#00B0FF"/>
<path opacity="0.45" d="M128.498 55.5559C128.507 55.5226 128.517 55.4897 128.527 55.4568C128.517 55.4897 128.507 55.5226 128.498 55.5559Z" fill="#00B0FF"/>
<path opacity="0.45" d="M128.604 55.2506C128.616 55.2235 128.626 55.1961 128.639 55.1694C128.626 55.1962 128.616 55.2235 128.604 55.2506Z" fill="#00B0FF"/>
<path opacity="0.45" d="M128.434 55.8629C128.438 55.831 128.445 55.7999 128.45 55.7683C128.445 55.7999 128.438 55.831 128.434 55.8629Z" fill="#00B0FF"/>
<path opacity="0.45" d="M128.778 54.9101C128.78 54.9068 128.781 54.9034 128.783 54.9001C128.781 54.9034 128.78 54.9068 128.778 54.9101Z" fill="#00B0FF"/>
<path opacity="0.1" d="M68.8231 41.5195L100.551 41.5195C101.942 41.5195 103.069 40.5519 103.069 39.3583V31.1198C103.069 29.9262 101.942 28.9587 100.551 28.9587L68.8231 28.9587C67.4326 28.9587 66.3053 29.9262 66.3053 31.1198V39.3583C66.3053 40.5519 67.4326 41.5195 68.8231 41.5195Z" fill="black"/>
<path opacity="0.1" d="M178.758 41.5195L210.486 41.5195C211.877 41.5195 213.004 40.5519 213.004 39.3583V31.1198C213.004 29.9262 211.877 28.9587 210.486 28.9587L178.758 28.9587C177.367 28.9587 176.24 29.9262 176.24 31.1198V39.3583C176.24 40.5519 177.367 41.5195 178.758 41.5195Z" fill="black"/>
<path opacity="0.1" d="M227.658 53.7739L259.386 53.7739C260.777 53.7739 261.904 52.8064 261.904 51.6128V43.3742C261.904 42.1807 260.777 41.2131 259.386 41.2131H227.658C226.267 41.2131 225.14 42.1807 225.14 43.3742V51.6128C225.14 52.8064 226.267 53.7739 227.658 53.7739Z" fill="black"/>
<path opacity="0.1" d="M167.693 66.0283H199.421C200.812 66.0283 201.939 65.0607 201.939 63.8672V55.6287C201.939 54.4351 200.812 53.4675 199.421 53.4675H167.693C166.303 53.4675 165.175 54.4351 165.175 55.6287V63.8672C165.175 65.0607 166.303 66.0283 167.693 66.0283Z" fill="black"/>
<path opacity="0.1" d="M227.658 78.5891H259.386C260.777 78.5891 261.904 77.6215 261.904 76.428V68.1894C261.904 66.9959 260.777 66.0283 259.386 66.0283H227.658C226.267 66.0283 225.14 66.9959 225.14 68.1894V76.428C225.14 77.6215 226.267 78.5891 227.658 78.5891Z" fill="black"/>
<path opacity="0.1" d="M227.658 103.098H259.386C260.777 103.098 261.904 102.13 261.904 100.937V92.6984C261.904 91.5048 260.777 90.5372 259.386 90.5372H227.658C226.267 90.5372 225.14 91.5048 225.14 92.6984V100.937C225.14 102.13 226.267 103.098 227.658 103.098Z" fill="black"/>
<path opacity="0.1" d="M242.831 102.792H210.661C210.164 102.792 209.681 102.93 209.284 103.186C208.886 103.442 208.596 103.801 208.457 104.211C208.466 104.322 208.457 104.434 208.431 104.543C208.415 104.607 208.393 104.67 208.366 104.732C208.366 104.742 208.364 104.753 208.364 104.763V113.381C208.364 113.904 208.606 114.405 209.037 114.775C209.468 115.145 210.052 115.353 210.661 115.353H242.831C243.44 115.353 244.024 115.145 244.455 114.775C244.886 114.405 245.128 113.904 245.128 113.381V104.763C245.128 104.504 245.069 104.248 244.953 104.009C244.838 103.77 244.668 103.552 244.455 103.369C244.242 103.186 243.989 103.041 243.71 102.942C243.431 102.843 243.133 102.792 242.831 102.792V102.792Z" fill="black"/>
<path opacity="0.1" d="M186.254 127.607H217.982C219.372 127.607 220.5 126.639 220.5 125.446V117.207C220.5 116.014 219.372 115.046 217.982 115.046H186.254C184.863 115.046 183.736 116.014 183.736 117.207V125.446C183.736 126.639 184.863 127.607 186.254 127.607Z" fill="black"/>
<path opacity="0.1" d="M80.6018 53.7739L112.33 53.7739C113.721 53.7739 114.848 52.8064 114.848 51.6128V43.3742C114.848 42.1807 113.721 41.2131 112.33 41.2131H80.6018C79.2112 41.2131 78.084 42.1807 78.084 43.3742V51.6128C78.084 52.8064 79.2112 53.7739 80.6018 53.7739Z" fill="black"/>
<path opacity="0.1" d="M57.7582 66.0283H89.4864C90.877 66.0283 92.0043 65.0607 92.0043 63.8672V55.6287C92.0043 54.4351 90.877 53.4675 89.4864 53.4675H57.7582C56.3676 53.4675 55.2403 54.4351 55.2403 55.6287V63.8672C55.2403 65.0607 56.3676 66.0283 57.7582 66.0283Z" fill="black"/>
<path opacity="0.1" d="M43.8379 78.5891H75.5661C76.9567 78.5891 78.084 77.6215 78.084 76.428V68.1894C78.084 66.9959 76.9567 66.0283 75.5661 66.0283H43.8379C42.4473 66.0283 41.32 66.9959 41.32 68.1894V76.428C41.32 77.6215 42.4473 78.5891 43.8379 78.5891Z" fill="black"/>
<path opacity="0.1" d="M58.829 90.8436H90.5572C91.9478 90.8436 93.0751 89.8761 93.0751 88.6825V80.444C93.0751 79.2504 91.9478 78.2828 90.5572 78.2828H58.829C57.4384 78.2828 56.3111 79.2504 56.3111 80.444V88.6825C56.3111 89.8761 57.4384 90.8436 58.829 90.8436Z" fill="black"/>
<path opacity="0.1" d="M43.8379 103.098H75.5661C76.9567 103.098 78.084 102.13 78.084 100.937V92.6984C78.084 91.5048 76.9567 90.5372 75.5661 90.5372H43.8379C42.4473 90.5372 41.32 91.5048 41.32 92.6984V100.937C41.32 102.13 42.4473 103.098 43.8379 103.098Z" fill="black"/>
<path opacity="0.45" d="M27.206 115.366H58.9341C60.3247 115.366 61.452 114.399 61.452 113.205V104.966C61.452 103.773 60.3247 102.805 58.9341 102.805H27.206C25.8154 102.805 24.6881 103.773 24.6881 104.966V113.205C24.6881 114.399 25.8154 115.366 27.206 115.366Z" fill="#00B0FF"/>
<path opacity="0.45" d="M241.862 90.83H273.59C274.981 90.83 276.108 89.8624 276.108 88.6688V80.4303C276.108 79.2367 274.981 78.2691 273.59 78.2691H241.862C240.471 78.2691 239.344 79.2367 239.344 80.4303V88.6688C239.344 89.8624 240.471 90.83 241.862 90.83Z" fill="#00B0FF"/>
<path opacity="0.45" d="M240.303 66.0709H272.031C273.422 66.0709 274.549 65.1033 274.549 63.9097V55.6712C274.549 54.4776 273.422 53.5101 272.031 53.5101H240.303C238.912 53.5101 237.785 54.4776 237.785 55.6712V63.9097C237.785 65.1033 238.912 66.0709 240.303 66.0709Z" fill="#00B0FF"/>
<path opacity="0.45" d="M258.754 127.411H290.482C291.873 127.411 293 126.443 293 125.25V117.011C293 115.818 291.873 114.85 290.482 114.85H258.754C257.363 114.85 256.236 115.818 256.236 117.011V125.25C256.236 126.443 257.363 127.411 258.754 127.411Z" fill="#00B0FF"/>
<path opacity="0.45" d="M2.51784 127.634H34.246C35.6366 127.634 36.7639 126.666 36.7639 125.473V117.234C36.7639 116.041 35.6366 115.073 34.246 115.073H2.51784C1.12726 115.073 -3.05176e-05 116.041 -3.05176e-05 117.234V125.473C-3.05176e-05 126.666 1.12726 127.634 2.51784 127.634Z" fill="#00B0FF"/>
<path opacity="0.45" d="M7.45547 102.875H39.1837C40.5742 102.875 41.7015 101.907 41.7015 100.714V92.4753C41.7015 91.2818 40.5742 90.3142 39.1837 90.3142H7.45547C6.06488 90.3142 4.9376 91.2818 4.9376 92.4753V100.714C4.9376 101.907 6.06488 102.875 7.45547 102.875Z" fill="#00B0FF"/>
<path opacity="0.45" d="M7.45547 78.562H39.1837C40.5742 78.562 41.7015 77.5944 41.7015 76.4008V68.1623C41.7015 66.9687 40.5742 66.0011 39.1837 66.0011H7.45547C6.06488 66.0011 4.9376 66.9687 4.9376 68.1623V76.4008C4.9376 77.5944 6.06488 78.562 7.45547 78.562Z" fill="#00B0FF"/>
<path opacity="0.45" d="M8.75491 53.8029L40.4831 53.8029C41.8737 53.8029 43.001 52.8353 43.001 51.6417V43.4032C43.001 42.2096 41.8737 41.2421 40.4831 41.2421H8.75491C7.36432 41.2421 6.23703 42.2096 6.23703 43.4032V51.6417C6.23703 52.8353 7.36432 53.8029 8.75491 53.8029Z" fill="#00B0FF"/>
<path opacity="0.1" d="M8.75491 53.8029L40.4831 53.8029C41.8737 53.8029 43.001 52.8353 43.001 51.6417V43.4032C43.001 42.2096 41.8737 41.2421 40.4831 41.2421H8.75491C7.36432 41.2421 6.23703 42.2096 6.23703 43.4032V51.6417C6.23703 52.8353 7.36432 53.8029 8.75491 53.8029Z" fill="black"/>
<path opacity="0.45" d="M32.1436 41.5349L63.8718 41.5349C65.2624 41.5349 66.3896 40.5673 66.3896 39.3737V31.1352C66.3896 29.9416 65.2624 28.974 63.8718 28.974L32.1436 28.974C30.753 28.974 29.6257 29.9416 29.6257 31.1352V39.3737C29.6257 40.5673 30.753 41.5349 32.1436 41.5349Z" fill="#00B0FF"/>
<path opacity="0.1" d="M64.183 115.352H95.9112C97.3018 115.352 98.4291 114.385 98.4291 113.191V104.953C98.4291 103.759 97.3018 102.792 95.9112 102.792H64.183C62.7924 102.792 61.6651 103.759 61.6651 104.953V113.191C61.6651 114.385 62.7924 115.352 64.183 115.352Z" fill="black"/>
<path opacity="0.1" d="M39.1978 127.607H70.926C72.3166 127.607 73.4438 126.639 73.4438 125.446V117.207C73.4438 116.014 72.3166 115.046 70.926 115.046H39.1978C37.8072 115.046 36.6799 116.014 36.6799 117.207V125.446C36.6799 126.639 37.8072 127.607 39.1978 127.607Z" fill="black"/>
</g>
<path d="M170.053 64.7323H111.349C109.309 64.7323 107.655 66.1521 107.655 67.9035V87.8701C107.655 89.6215 109.309 91.0414 111.349 91.0414H170.053C172.093 91.0414 173.748 89.6215 173.748 87.8701V67.9035C173.748 66.1521 172.093 64.7323 170.053 64.7323Z" fill="#00B0FF"/>
<path opacity="0.1" d="M168.479 87.0035H112.923V87.4968H168.479V87.0035Z" fill="black"/>
<path opacity="0.3" d="M168.479 68.8431H112.923V86.9306H168.479V68.8431Z" fill="black"/>
<path opacity="0.1" d="M125.854 84.8416C130.086 84.8416 133.517 81.8968 133.517 78.2643C133.517 74.6318 130.086 71.687 125.854 71.687C121.622 71.687 118.191 74.6318 118.191 78.2643C118.191 81.8968 121.622 84.8416 125.854 84.8416Z" fill="black"/>
<path opacity="0.1" d="M155.548 84.8416C159.78 84.8416 163.211 81.8968 163.211 78.2643C163.211 74.6318 159.78 71.687 155.548 71.687C151.316 71.687 147.885 74.6318 147.885 78.2643C147.885 81.8968 151.316 84.8416 155.548 84.8416Z" fill="black"/>
<path d="M146.447 91.0406H134.954V96.7971H146.447V91.0406Z" fill="#00B0FF"/>
<path d="M164.648 95.1522H116.754V128.039H164.648V95.1522Z" fill="#00B0FF"/>
<path d="M165.606 134.616H115.797V138.727H165.606V134.616Z" fill="#00B0FF"/>
<path d="M123.938 148.592V153.525V160.925V165.036V167.502H132.559V165.036V160.925V153.525V148.592V142.837H123.938V148.592Z" fill="#00B0FF"/>
<path d="M149.801 142.837V148.592V153.525V160.925V165.036V167.502H158.422V165.036V160.925V153.525V148.592V142.837H149.801Z" fill="#00B0FF"/>
<path d="M110.231 102.552V110.156C107.865 110.511 105.66 111.423 103.863 112.791C102.196 114.116 100.9 115.747 100.072 117.562C98.9635 119.867 98.4248 122.426 98.2049 124.846C97.9337 128.109 98.1116 131.389 98.7348 134.617H89.1562C88.7494 130.072 88.8792 126.172 89.4069 122.824C89.9984 119.049 91.0935 115.977 92.481 113.478C95.2561 108.482 99.2032 105.772 102.671 104.299C106.79 102.552 110.231 102.552 110.231 102.552Z" fill="#00B0FF"/>
<path opacity="0.3" d="M132.559 142.837H123.938V148.592H132.559V142.837Z" fill="black"/>
<path opacity="0.3" d="M132.559 153.525H123.938V160.925H132.559V153.525Z" fill="black"/>
<path opacity="0.3" d="M132.559 165.036H123.938V167.502H132.559V165.036Z" fill="black"/>
<path opacity="0.3" d="M158.422 142.837H149.801V148.592H158.422V142.837Z" fill="black"/>
<path opacity="0.3" d="M158.422 153.525H149.801V160.925H158.422V153.525Z" fill="black"/>
<path opacity="0.3" d="M158.422 165.036H149.801V167.502H158.422V165.036Z" fill="black"/>
<path opacity="0.3" d="M110.231 102.552V110.156C107.865 110.511 105.66 111.423 103.863 112.791L102.671 104.299C106.79 102.552 110.231 102.552 110.231 102.552Z" fill="black"/>
<path opacity="0.3" d="M100.072 117.562C98.9636 119.867 98.4248 122.426 98.2049 124.846L89.407 122.824C89.9985 119.049 91.0936 115.977 92.4811 113.478L100.072 117.562Z" fill="black"/>
<path d="M171.171 102.552V110.156C173.538 110.511 175.742 111.423 177.539 112.791C179.206 114.116 180.502 115.747 181.33 117.562C182.439 119.867 182.977 122.426 183.197 124.846C183.469 128.109 183.291 131.389 182.667 134.617H192.246C192.653 130.072 192.523 126.172 191.995 122.824C191.404 119.049 190.309 115.977 188.921 113.478C186.146 108.482 182.199 105.772 178.731 104.299C174.613 102.552 171.171 102.552 171.171 102.552Z" fill="#00B0FF"/>
<path opacity="0.3" d="M171.171 102.552V110.156C173.538 110.511 175.742 111.423 177.54 112.791L178.731 104.299C174.613 102.552 171.171 102.552 171.171 102.552Z" fill="black"/>
<path opacity="0.3" d="M181.33 117.562C182.439 119.867 182.977 122.426 183.197 124.846L191.995 122.824C191.404 119.049 190.309 115.977 188.921 113.478L181.33 117.562Z" fill="black"/>
<path opacity="0.1" d="M146.447 91.0406H134.954V91.7219H146.447V91.0406Z" fill="black"/>
<path opacity="0.1" d="M165.499 101.012V114.78C164.926 114.249 164.608 113.552 164.608 112.829V102.961C164.608 102.238 164.926 101.542 165.499 101.012V101.012Z" fill="black"/>
<path opacity="0.1" d="M116.924 101.92V112.227C116.867 112.878 116.552 113.494 116.032 113.971V100.176C116.552 100.653 116.867 101.268 116.924 101.92V101.92Z" fill="black"/>
<path opacity="0.1" d="M162.253 128.039H119.15V128.526H162.253V128.039Z" fill="black"/>
<path opacity="0.1" d="M139.263 138.727H118.191V139.105H139.263V138.727Z" fill="black"/>
<path opacity="0.1" d="M162.253 138.727H141.181V139.105H162.253V138.727Z" fill="black"/>
<path d="M123.84 40.385H120.542V64.7323H123.84V40.385Z" fill="#00B0FF"/>
<path d="M161.662 40.385H158.363V64.7323H161.662V40.385Z" fill="#00B0FF"/>
<path opacity="0.1" d="M122.081 43.7822C124.146 43.7822 125.819 42.3457 125.819 40.5737C125.819 38.8016 124.146 37.3651 122.081 37.3651C120.016 37.3651 118.343 38.8016 118.343 40.5737C118.343 42.3457 120.016 43.7822 122.081 43.7822Z" fill="black"/>
<path d="M122.081 43.5935C124.146 43.5935 125.819 42.157 125.819 40.385C125.819 38.6129 124.146 37.1764 122.081 37.1764C120.016 37.1764 118.343 38.6129 118.343 40.385C118.343 42.157 120.016 43.5935 122.081 43.5935Z" fill="#00B0FF"/>
<path opacity="0.1" d="M160.123 43.7822C162.187 43.7822 163.861 42.3457 163.861 40.5737C163.861 38.8016 162.187 37.3651 160.123 37.3651C158.058 37.3651 156.384 38.8016 156.384 40.5737C156.384 42.3457 158.058 43.7822 160.123 43.7822Z" fill="black"/>
<path d="M160.123 43.5935C162.187 43.5935 163.861 42.157 163.861 40.385C163.861 38.6129 162.187 37.1764 160.123 37.1764C158.058 37.1764 156.384 38.6129 156.384 40.385C156.384 42.157 158.058 43.5935 160.123 43.5935Z" fill="#00B0FF"/>
</g>
<defs>
<clipPath id="clip0">
<rect width="293" height="184" fill="white"/>
</clipPath>
</defs>
</svg>
