<svg width="151" height="167" viewBox="0 0 151 167" fill="none" xmlns="http://www.w3.org/2000/svg">
<path d="M14.4251 13.7366C10.6007 13.74 6.9341 14.9297 4.22982 17.0446C1.52553 19.1596 0.00434994 22.0271 0 25.0181V154.988C0.0043874 157.979 1.52559 160.847 4.22987 162.962C6.93415 165.077 10.6007 166.266 14.4251 166.27H136.334C140.159 166.266 143.825 165.077 146.529 162.962C149.234 160.847 150.755 157.979 150.759 154.988V25.0181C150.755 22.0271 149.234 19.1596 146.53 17.0447C143.825 14.9297 140.159 13.74 136.334 13.7366H14.4251Z" fill="#3F3D56"/>
<path d="M143.258 21.7496H7.50134V158.257H143.258V21.7496Z" fill="white"/>
<path d="M125.511 46.2178H25.2485V51.3691H125.511V46.2178Z" fill="#00B0FF"/>
<path d="M125.511 59.9545H25.2485V65.1057H125.511V59.9545Z" fill="#00B0FF"/>
<path d="M125.511 73.691H25.2485V78.8423H125.511V73.691Z" fill="#00B0FF"/>
<path d="M125.511 87.4276H25.2485V92.5789H125.511V87.4276Z" fill="#00B0FF"/>
<path d="M125.511 101.164H25.2485V106.315H125.511V101.164Z" fill="#00B0FF"/>
<path d="M125.511 114.901H25.2485V120.052H125.511V114.901Z" fill="#00B0FF"/>
<path d="M125.511 128.637H25.2485V133.789H125.511V128.637Z" fill="#00B0FF"/>
<path d="M126.922 13.094L27.5027 27.3232L50.895 127.292L150.314 113.063L126.922 13.094Z" fill="#E6E6E6"/>
<path d="M118.118 32.8732L44.6926 43.382L45.5754 47.1544L119.001 36.6456L118.118 32.8732Z" fill="#00B0FF"/>
<path d="M120.472 42.933L47.0465 53.4418L47.9292 57.2143L121.355 46.7054L120.472 42.933Z" fill="#00B0FF"/>
<path d="M122.826 52.9927L49.4005 63.5016L50.2832 67.274L123.709 56.7651L122.826 52.9927Z" fill="#00B0FF"/>
<path d="M125.18 63.0525L51.7544 73.5614L52.6371 77.3338L126.063 66.825L125.18 63.0525Z" fill="#00B0FF"/>
<path d="M127.533 73.1124L54.1074 83.6211L54.9901 87.3935L128.415 76.8848L127.533 73.1124Z" fill="#00B0FF"/>
<path d="M129.888 83.1721L56.4623 93.681L57.345 97.4534L130.771 86.9445L129.888 83.1721Z" fill="#00B0FF"/>
<path d="M132.242 93.2319L58.8162 103.741L59.6989 107.513L133.125 97.0043L132.242 93.2319Z" fill="#00B0FF"/>
<path d="M100.516 7.15447H88.5528V5.2391C88.5528 3.8496 87.847 2.51702 86.5907 1.5345C85.3344 0.551975 83.6305 0 81.8538 0H68.9054C67.1288 1.24895e-06 65.4249 0.551977 64.1686 1.5345C62.9123 2.51702 62.2065 3.8496 62.2065 5.2391V7.15447H50.2435C49.3638 7.15447 48.4927 7.28998 47.6799 7.55327C46.8672 7.81656 46.1287 8.20247 45.5066 8.68897C44.8846 9.17546 44.3911 9.75301 44.0545 10.3887C43.7178 11.0243 43.5446 11.7056 43.5446 12.3936V26.9008H107.215V12.3936C107.215 11.7056 107.041 11.0243 106.705 10.3887C106.368 9.75301 105.875 9.17546 105.253 8.68897C104.631 8.20247 103.892 7.81656 103.079 7.55327C102.267 7.28998 101.396 7.15447 100.516 7.15447V7.15447Z" fill="#3F3D56"/>
<path d="M71.0853 148.33C73.0633 147.272 75.0961 146.17 77.445 145.689C79.588 145.25 82.0488 145.366 83.7438 146.594C85.1117 147.584 85.6893 149.106 84.6758 150.409C84.4584 150.706 84.1629 150.964 83.8089 151.166C83.4548 151.367 83.0503 151.508 82.6218 151.578C82.2078 151.621 81.7867 151.581 81.3977 151.462C81.0088 151.343 80.6646 151.149 80.3973 150.898C79.8659 150.439 79.5479 149.76 79.8303 149.155C80.1272 148.518 80.9216 148.129 81.7017 147.912C82.6097 147.687 83.545 147.536 84.4926 147.461L88.3741 147.045L104.261 145.344L121.953 143.45C122.093 143.419 122.212 143.347 122.284 143.248C122.355 143.149 122.374 143.032 122.337 142.922C122.295 142.814 122.201 142.722 122.076 142.667C121.95 142.611 121.802 142.595 121.662 142.622L86.4575 146.391C85.1841 146.528 83.8928 146.625 82.6327 146.826C81.6407 146.951 80.7001 147.257 79.8864 147.718C78.2 148.762 78.3205 150.609 79.8724 151.701C81.4434 152.807 83.7211 152.617 85.0998 151.395C85.7968 150.777 86.2105 149.995 86.2756 149.172C86.3407 148.35 86.0534 147.534 85.4592 146.853C83.9543 145.078 81.212 144.397 78.5918 144.648C75.5615 144.939 72.9925 146.272 70.5312 147.589C69.9518 147.899 70.5002 148.643 71.0853 148.33V148.33Z" fill="#3F3D56"/>
</svg>
